<svg xmlns="http://www.w3.org/2000/svg" width="1200" height="900" viewBox="0 0 1200 900" role="img" aria-label="Parent Resource Guide project preview graphic">
  <defs>
    <linearGradient id="bg2" x1="0" y1="0" x2="1" y2="1">
      <stop offset="0" stop-color="#fbfaf8"/>
      <stop offset="1" stop-color="#f3efe9"/>
    </linearGradient>
    <filter id="shadow2" x="-20%" y="-20%" width="140%" height="140%">
      <feDropShadow dx="0" dy="16" stdDeviation="16" flood-color="#000" flood-opacity="0.11"/>
    </filter>
  </defs>

  <rect width="1200" height="900" rx="48" fill="url(#bg2)"/>

  <g opacity="0.8">
    <rect x="92" y="110" width="1016" height="680" rx="44" fill="#ffffff" opacity="0.65"/>
  </g>

  <g filter="url(#shadow2)">
    <rect x="160" y="170" width="880" height="560" rx="36" fill="#ffffff"/>
    <rect x="210" y="230" width="310" height="18" rx="9" fill="#1d1b19" opacity="0.18"/>
    <rect x="210" y="262" width="220" height="18" rx="9" fill="#1d1b19" opacity="0.12"/>
    <rect x="210" y="324" width="780" height="1" fill="#ece7e2"/>

    <rect x="210" y="366" width="260" height="150" rx="22" fill="#fbfaf8" stroke="#ece7e2"/>
    <rect x="500" y="366" width="260" height="150" rx="22" fill="#fbfaf8" stroke="#ece7e2"/>
    <rect x="780" y="366" width="210" height="150" rx="22" fill="#fbfaf8" stroke="#ece7e2"/>

    <rect x="210" y="546" width="780" height="18" rx="9" fill="#1d1b19" opacity="0.1"/>
    <rect x="210" y="578" width="720" height="18" rx="9" fill="#1d1b19" opacity="0.08"/>
    <rect x="210" y="610" width="680" height="18" rx="9" fill="#1d1b19" opacity="0.08"/>
    <rect x="210" y="642" width="610" height="18" rx="9" fill="#1d1b19" opacity="0.08"/>
  </g>

  <g>
    <text x="160" y="130" font-family="Inter, system-ui, -apple-system, Segoe UI, Roboto, Helvetica, Arial, sans-serif" font-size="22" fill="#1d1b19" opacity="0.68" letter-spacing="6">
      RESOURCE GUIDE
    </text>
  </g>
</svg>
