<svg xmlns="http://www.w3.org/2000/svg" width="1200" height="900" viewBox="0 0 1200 900" role="img" aria-label="HTML projects preview graphic">
  <defs>
    <linearGradient id="bg3" x1="0" y1="0" x2="1" y2="1">
      <stop offset="0" stop-color="#fbfaf8"/>
      <stop offset="1" stop-color="#efe9e2"/>
    </linearGradient>
    <filter id="shadow3" x="-20%" y="-20%" width="140%" height="140%">
      <feDropShadow dx="0" dy="18" stdDeviation="18" flood-color="#000" flood-opacity="0.12"/>
    </filter>
  </defs>

  <rect width="1200" height="900" rx="48" fill="url(#bg3)"/>

  <g filter="url(#shadow3)">
    <rect x="140" y="160" width="920" height="580" rx="40" fill="#ffffff"/>
    <rect x="140" y="160" width="920" height="86" rx="40" fill="#f5f2ee"/>
    <circle cx="200" cy="203" r="10" fill="#1d1b19" opacity="0.25"/>
    <circle cx="234" cy="203" r="10" fill="#1d1b19" opacity="0.18"/>
    <circle cx="268" cy="203" r="10" fill="#1d1b19" opacity="0.12"/>

    <rect x="200" y="300" width="260" height="18" rx="9" fill="#1d1b19" opacity="0.14"/>
    <rect x="200" y="336" width="520" height="12" rx="6" fill="#1d1b19" opacity="0.1"/>
    <rect x="200" y="362" width="480" height="12" rx="6" fill="#1d1b19" opacity="0.08"/>

    <rect x="200" y="420" width="300" height="220" rx="26" fill="#fbfaf8" stroke="#ece7e2"/>
    <rect x="520" y="420" width="300" height="220" rx="26" fill="#fbfaf8" stroke="#ece7e2"/>
    <rect x="840" y="420" width="170" height="220" rx="26" fill="#fbfaf8" stroke="#ece7e2"/>

    <rect x="240" y="462" width="220" height="12" rx="6" fill="#1d1b19" opacity="0.12"/>
    <rect x="240" y="492" width="190" height="12" rx="6" fill="#1d1b19" opacity="0.08"/>
    <rect x="560" y="462" width="220" height="12" rx="6" fill="#1d1b19" opacity="0.12"/>
    <rect x="560" y="492" width="170" height="12" rx="6" fill="#1d1b19" opacity="0.08"/>
  </g>

  <text x="140" y="130" font-family="Inter, system-ui, -apple-system, Segoe UI, Roboto, Helvetica, Arial, sans-serif" font-size="22" fill="#1d1b19" opacity="0.68" letter-spacing="6">
    HTML " CSS " PAGES
  </text>
</svg>
