<svg xmlns="http://www.w3.org/2000/svg" width="1200" height="900" viewBox="0 0 1200 900" role="img" aria-label="Fuel Pay project preview graphic">
  <defs>
    <linearGradient id="bg" x1="0" y1="0" x2="1" y2="1">
      <stop offset="0" stop-color="#fbfaf8"/>
      <stop offset="1" stop-color="#f0ece7"/>
    </linearGradient>
    <linearGradient id="accent" x1="0" y1="0" x2="1" y2="0">
      <stop offset="0" stop-color="#1d1b19" stop-opacity="0.95"/>
      <stop offset="1" stop-color="#1d1b19" stop-opacity="0.55"/>
    </linearGradient>
    <filter id="shadow" x="-20%" y="-20%" width="140%" height="140%">
      <feDropShadow dx="0" dy="18" stdDeviation="18" flood-color="#000" flood-opacity="0.12"/>
    </filter>
  </defs>

  <rect width="1200" height="900" rx="48" fill="url(#bg)"/>

  <g opacity="0.9">
    <circle cx="140" cy="150" r="110" fill="#ffffff" opacity="0.55"/>
    <circle cx="1060" cy="180" r="150" fill="#ffffff" opacity="0.35"/>
    <circle cx="920" cy="760" r="210" fill="#ffffff" opacity="0.28"/>
  </g>

  <g filter="url(#shadow)">
    <rect x="140" y="140" width="360" height="620" rx="42" fill="#ffffff"/>
    <rect x="170" y="190" width="300" height="58" rx="18" fill="#f5f2ee"/>
    <rect x="170" y="270" width="260" height="18" rx="9" fill="#e7dfd6"/>
    <rect x="170" y="304" width="210" height="18" rx="9" fill="#e7dfd6"/>
    <rect x="170" y="360" width="300" height="190" rx="26" fill="#fbfaf8" stroke="#ece7e2"/>
    <rect x="170" y="580" width="300" height="72" rx="22" fill="#1d1b19" opacity="0.92"/>
    <rect x="170" y="674" width="220" height="18" rx="9" fill="#e7dfd6"/>
    <rect x="170" y="708" width="180" height="18" rx="9" fill="#e7dfd6"/>
  </g>

  <g>
    <rect x="560" y="220" width="520" height="12" rx="6" fill="#1d1b19" opacity="0.12"/>
    <rect x="560" y="252" width="420" height="12" rx="6" fill="#1d1b19" opacity="0.1"/>
    <rect x="560" y="284" width="460" height="12" rx="6" fill="#1d1b19" opacity="0.1"/>
  </g>

  <g>
    <rect x="560" y="360" width="440" height="90" rx="32" fill="url(#accent)" opacity="0.92"/>
    <circle cx="602" cy="405" r="16" fill="#fbfaf8" opacity="0.95"/>
    <rect x="632" y="392" width="250" height="26" rx="13" fill="#fbfaf8" opacity="0.92"/>
  </g>

  <text x="560" y="162" font-family="Inter, system-ui, -apple-system, Segoe UI, Roboto, Helvetica, Arial, sans-serif" font-size="22" fill="#1d1b19" opacity="0.68" letter-spacing="6">
    FUEL PAY
  </text>
</svg>
